<svg width="53" height="64" viewBox="0 0 53 64" fill="none" xmlns="http://www.w3.org/2000/svg">
<path d="M4.35352 0.130859H5.81836C8.25977 0.130859 12.2637 3.45117 17.8301 10.0918C21.1829 14.0957 25.7077 20.6875 31.4043 29.8672C37.1335 39.0143 40.3561 43.5879 41.0723 43.5879C42.0488 43.5879 42.765 37.9564 43.2207 26.6934C43.6764 15.4303 44.1484 8.5293 44.6367 5.99023C45.3854 2.18164 46.8665 0.277344 49.0801 0.277344C50.7728 0.277344 51.847 0.895833 52.3027 2.13281C52.5957 2.91406 52.7422 4.7207 52.7422 7.55273L51.9609 22.8359C51.668 28.6302 51.5215 35.4661 51.5215 43.3438C51.5215 51.1888 51.2611 56.8366 50.7402 60.2871C50.4147 62.403 49.0312 63.4609 46.5898 63.4609C44.181 63.4609 41.5605 61.6543 38.7285 58.041C38.5983 57.8457 34.3014 50.8307 25.8379 36.9961C17.4069 23.1289 12.6217 16.1953 11.4824 16.1953C10.8314 16.1953 10.099 22.6406 9.28516 35.5312C8.50391 48.3893 7.9668 55.7949 7.67383 57.748C7.38086 59.6686 6.74609 61.1172 5.76953 62.0938C4.82552 63.0378 4.04427 63.5098 3.42578 63.5098H2.15625C0.821615 63.5098 0.154297 62.5332 0.154297 60.5801V57.1621L0.203125 55.4043V53.5977L1.17969 14.6816L0.935547 3.64648C0.935547 1.30273 2.07487 0.130859 4.35352 0.130859Z" fill="white"/>
</svg>
